<svg xmlns="http://www.w3.org/2000/svg" viewBox="0 0 1600 1212" width="1600" height="1212" font-family="Segoe UI, Arial, sans-serif">
<rect width="1600" height="1212" fill="#ffffff"/>
<text x="30" y="42" font-size="26" fill="#1b2733" font-weight="700" text-anchor="start">CT6 energy monitor: final wiring, 6 CT + ZMPT101B voltage (breadboard-proven values)</text>
<text x="30" y="68" font-size="15" fill="#4a5a6a" font-weight="400" text-anchor="start">One shared BIAS feeds all 6 CT channels. Each channel is identical: fit the 24 Ω burden only when that channel uses a 100A/50mA CT.</text>
<polyline points="40,110 1360,110 1360,130 1380,130" stroke="#d62828" stroke-width="4" fill="none" stroke-linejoin="round"/>
<text x="44" y="100" font-size="15" fill="#d62828" font-weight="600" text-anchor="start">3V3 rail</text>
<polyline points="40,560 1360,560 1360,540 1380,540" stroke="#222222" stroke-width="4" fill="none" stroke-linejoin="round"/>
<text x="44" y="584" font-size="15" fill="#1b2733" font-weight="600" text-anchor="start">GND rail</text>
<line x1="120" y1="250" x2="1340" y2="250" stroke="#1d6fd6" stroke-width="4" stroke-linecap="round"/>
<text x="1250" y="238" font-size="14" fill="#1d6fd6" font-weight="700" text-anchor="start">BIAS bus ≈ 1.65 V</text>
<line x1="120" y1="110" x2="120" y2="140" stroke="#d62828" stroke-width="4" stroke-linecap="round"/>
<rect x="112" y="140" width="16" height="70" rx="3" fill="#f3e2b3" stroke="#6b5518" stroke-width="2"/>
<line x1="120" y1="210" x2="120" y2="250" stroke="#1d6fd6" stroke-width="4" stroke-linecap="round"/>
<text x="134" y="180" font-size="14" fill="#1b2733" font-weight="600" text-anchor="start">R1 10k</text>
<line x1="120" y1="250" x2="120" y2="300" stroke="#1d6fd6" stroke-width="4" stroke-linecap="round"/>
<rect x="112" y="300" width="16" height="70" rx="3" fill="#f3e2b3" stroke="#6b5518" stroke-width="2"/>
<line x1="120" y1="370" x2="120" y2="560" stroke="#222222" stroke-width="4" stroke-linecap="round"/>
<text x="134" y="340" font-size="14" fill="#1b2733" font-weight="600" text-anchor="start">R2 10k</text>
<circle cx="120" cy="250" r="7" fill="#1d6fd6"/>
<polyline points="120,250 45,250 45,420" stroke="#1d6fd6" stroke-width="4" fill="none" stroke-linejoin="round"/>
<line x1="29" y1="420" x2="61" y2="420" stroke="#1b2733" stroke-width="4" stroke-linecap="round"/>
<line x1="29" y1="430" x2="61" y2="430" stroke="#1b2733" stroke-width="4" stroke-linecap="round"/>
<line x1="45" y1="430" x2="45" y2="560" stroke="#222222" stroke-width="4" stroke-linecap="round"/>
<text x="68" y="446" font-size="14" fill="#1b2733" font-weight="600" text-anchor="start">C1</text>
<text x="68" y="464" font-size="14" fill="#1b2733" font-weight="600" text-anchor="start">100µF</text>
<text x="68" y="482" font-size="11.5" fill="#3d4b59" font-weight="400" text-anchor="start">+ up</text>
<circle cx="45" cy="250" r="6" fill="#1d6fd6"/>
<rect x="212" y="380" width="48" height="60" rx="8" fill="#e9eef5" stroke="#5b6b7b" stroke-width="2"/>
<text x="236" y="406" font-size="14" fill="#1b2733" font-weight="700" text-anchor="middle">CT1</text>
<text x="236" y="424" font-size="11" fill="#3d4b59" font-weight="400" text-anchor="middle">jack</text>
<circle cx="260" cy="400" r="6" fill="#2a9d3f"/>
<text x="264" y="418" font-size="11" fill="#2a9d3f" font-weight="700" text-anchor="start">T</text>
<circle cx="236" cy="380" r="6" fill="#1d6fd6"/>
<line x1="236" y1="380" x2="236" y2="250" stroke="#1d6fd6" stroke-width="4" stroke-linecap="round"/>
<circle cx="236" cy="250" r="6" fill="#1d6fd6"/>
<text x="240" y="374" font-size="11" fill="#1d6fd6" font-weight="700" text-anchor="start">S</text>
<line x1="260" y1="400" x2="278" y2="400" stroke="#2a9d3f" stroke-width="4" stroke-linecap="round"/>
<circle cx="270" cy="400" r="6" fill="#2a9d3f"/>
<line x1="270" y1="400" x2="270" y2="360" stroke="#2a9d3f" stroke-width="4" stroke-linecap="round"/>
<rect x="262" y="300" width="16" height="60" rx="3" fill="#ffd6d6" stroke="#b01e1e" stroke-width="2" stroke-dasharray="5,3"/>
<polyline points="270,300 270,282 236,282" stroke="#1d6fd6" stroke-width="4" fill="none" stroke-linejoin="round"/>
<circle cx="236" cy="282" r="6" fill="#1d6fd6"/>
<text x="282" y="322" font-size="13" fill="#b01e1e" font-weight="700" text-anchor="start">R_B</text>
<text x="282" y="338" font-size="12" fill="#b01e1e" font-weight="400" text-anchor="start">24 Ω</text>
<text x="282" y="353" font-size="11" fill="#8a4b00" font-weight="400" text-anchor="start" font-style="italic">100A</text>
<rect x="278" y="392" width="40" height="16" rx="3" fill="#f3e2b3" stroke="#6b5518" stroke-width="2"/>
<text x="284" y="388" font-size="12" fill="#1b2733" font-weight="600" text-anchor="start">1k</text>
<line x1="318" y1="400" x2="330" y2="400" stroke="#e07b00" stroke-width="4" stroke-linecap="round"/>
<circle cx="330" cy="400" r="7" fill="#e07b00"/>
<line x1="330" y1="400" x2="330" y2="360" stroke="#e07b00" stroke-width="4" stroke-linecap="round"/>
<rect x="322" y="290" width="16" height="70" rx="3" fill="#f3e2b3" stroke="#6b5518" stroke-width="2"/>
<line x1="330" y1="290" x2="330" y2="250" stroke="#1d6fd6" stroke-width="4" stroke-linecap="round"/>
<circle cx="330" cy="250" r="6" fill="#1d6fd6"/>
<text x="342" y="318" font-size="12" fill="#1b2733" font-weight="600" text-anchor="start">1.8k</text>
<polyline points="330,400 380,400 380,490" stroke="#e07b00" stroke-width="4" fill="none" stroke-linejoin="round"/>
<line x1="364" y1="490" x2="396" y2="490" stroke="#1b2733" stroke-width="4" stroke-linecap="round"/>
<line x1="364" y1="500" x2="396" y2="500" stroke="#1b2733" stroke-width="4" stroke-linecap="round"/>
<line x1="380" y1="500" x2="380" y2="560" stroke="#222222" stroke-width="4" stroke-linecap="round"/>
<circle cx="380" cy="400" r="6" fill="#e07b00"/>
<text x="400" y="500" font-size="12" fill="#1b2733" font-weight="600" text-anchor="start">104</text>
<line x1="330" y1="400" x2="330" y2="440" stroke="#e07b00" stroke-width="4" stroke-linecap="round"/>
<rect x="292" y="442" width="78" height="26" rx="13" fill="#e07b00"/>
<text x="331.0" y="460" font-size="13" fill="#ffffff" font-weight="700" text-anchor="middle">→ GPIO1</text>
<rect x="402" y="380" width="48" height="60" rx="8" fill="#e9eef5" stroke="#5b6b7b" stroke-width="2"/>
<text x="426" y="406" font-size="14" fill="#1b2733" font-weight="700" text-anchor="middle">CT2</text>
<text x="426" y="424" font-size="11" fill="#3d4b59" font-weight="400" text-anchor="middle">jack</text>
<circle cx="450" cy="400" r="6" fill="#2a9d3f"/>
<text x="454" y="418" font-size="11" fill="#2a9d3f" font-weight="700" text-anchor="start">T</text>
<circle cx="426" cy="380" r="6" fill="#1d6fd6"/>
<line x1="426" y1="380" x2="426" y2="250" stroke="#1d6fd6" stroke-width="4" stroke-linecap="round"/>
<circle cx="426" cy="250" r="6" fill="#1d6fd6"/>
<text x="430" y="374" font-size="11" fill="#1d6fd6" font-weight="700" text-anchor="start">S</text>
<line x1="450" y1="400" x2="468" y2="400" stroke="#2a9d3f" stroke-width="4" stroke-linecap="round"/>
<circle cx="460" cy="400" r="6" fill="#2a9d3f"/>
<line x1="460" y1="400" x2="460" y2="360" stroke="#2a9d3f" stroke-width="4" stroke-linecap="round"/>
<rect x="452" y="300" width="16" height="60" rx="3" fill="#ffd6d6" stroke="#b01e1e" stroke-width="2" stroke-dasharray="5,3"/>
<polyline points="460,300 460,282 426,282" stroke="#1d6fd6" stroke-width="4" fill="none" stroke-linejoin="round"/>
<circle cx="426" cy="282" r="6" fill="#1d6fd6"/>
<text x="472" y="322" font-size="13" fill="#b01e1e" font-weight="700" text-anchor="start">R_B</text>
<text x="472" y="338" font-size="12" fill="#b01e1e" font-weight="400" text-anchor="start">24 Ω</text>
<text x="472" y="353" font-size="11" fill="#8a4b00" font-weight="400" text-anchor="start" font-style="italic">100A</text>
<rect x="468" y="392" width="40" height="16" rx="3" fill="#f3e2b3" stroke="#6b5518" stroke-width="2"/>
<text x="474" y="388" font-size="12" fill="#1b2733" font-weight="600" text-anchor="start">1k</text>
<line x1="508" y1="400" x2="520" y2="400" stroke="#e07b00" stroke-width="4" stroke-linecap="round"/>
<circle cx="520" cy="400" r="7" fill="#e07b00"/>
<line x1="520" y1="400" x2="520" y2="360" stroke="#e07b00" stroke-width="4" stroke-linecap="round"/>
<rect x="512" y="290" width="16" height="70" rx="3" fill="#f3e2b3" stroke="#6b5518" stroke-width="2"/>
<line x1="520" y1="290" x2="520" y2="250" stroke="#1d6fd6" stroke-width="4" stroke-linecap="round"/>
<circle cx="520" cy="250" r="6" fill="#1d6fd6"/>
<text x="532" y="318" font-size="12" fill="#1b2733" font-weight="600" text-anchor="start">1.8k</text>
<polyline points="520,400 570,400 570,490" stroke="#e07b00" stroke-width="4" fill="none" stroke-linejoin="round"/>
<line x1="554" y1="490" x2="586" y2="490" stroke="#1b2733" stroke-width="4" stroke-linecap="round"/>
<line x1="554" y1="500" x2="586" y2="500" stroke="#1b2733" stroke-width="4" stroke-linecap="round"/>
<line x1="570" y1="500" x2="570" y2="560" stroke="#222222" stroke-width="4" stroke-linecap="round"/>
<circle cx="570" cy="400" r="6" fill="#e07b00"/>
<text x="590" y="500" font-size="12" fill="#1b2733" font-weight="600" text-anchor="start">104</text>
<line x1="520" y1="400" x2="520" y2="440" stroke="#e07b00" stroke-width="4" stroke-linecap="round"/>
<rect x="482" y="442" width="78" height="26" rx="13" fill="#e07b00"/>
<text x="521.0" y="460" font-size="13" fill="#ffffff" font-weight="700" text-anchor="middle">→ GPIO4</text>
<rect x="592" y="380" width="48" height="60" rx="8" fill="#e9eef5" stroke="#5b6b7b" stroke-width="2"/>
<text x="616" y="406" font-size="14" fill="#1b2733" font-weight="700" text-anchor="middle">CT3</text>
<text x="616" y="424" font-size="11" fill="#3d4b59" font-weight="400" text-anchor="middle">jack</text>
<circle cx="640" cy="400" r="6" fill="#2a9d3f"/>
<text x="644" y="418" font-size="11" fill="#2a9d3f" font-weight="700" text-anchor="start">T</text>
<circle cx="616" cy="380" r="6" fill="#1d6fd6"/>
<line x1="616" y1="380" x2="616" y2="250" stroke="#1d6fd6" stroke-width="4" stroke-linecap="round"/>
<circle cx="616" cy="250" r="6" fill="#1d6fd6"/>
<text x="620" y="374" font-size="11" fill="#1d6fd6" font-weight="700" text-anchor="start">S</text>
<line x1="640" y1="400" x2="658" y2="400" stroke="#2a9d3f" stroke-width="4" stroke-linecap="round"/>
<circle cx="650" cy="400" r="6" fill="#2a9d3f"/>
<line x1="650" y1="400" x2="650" y2="360" stroke="#2a9d3f" stroke-width="4" stroke-linecap="round"/>
<rect x="642" y="300" width="16" height="60" rx="3" fill="#ffd6d6" stroke="#b01e1e" stroke-width="2" stroke-dasharray="5,3"/>
<polyline points="650,300 650,282 616,282" stroke="#1d6fd6" stroke-width="4" fill="none" stroke-linejoin="round"/>
<circle cx="616" cy="282" r="6" fill="#1d6fd6"/>
<text x="662" y="322" font-size="13" fill="#b01e1e" font-weight="700" text-anchor="start">R_B</text>
<text x="662" y="338" font-size="12" fill="#b01e1e" font-weight="400" text-anchor="start">24 Ω</text>
<text x="662" y="353" font-size="11" fill="#8a4b00" font-weight="400" text-anchor="start" font-style="italic">100A</text>
<rect x="658" y="392" width="40" height="16" rx="3" fill="#f3e2b3" stroke="#6b5518" stroke-width="2"/>
<text x="664" y="388" font-size="12" fill="#1b2733" font-weight="600" text-anchor="start">1k</text>
<line x1="698" y1="400" x2="710" y2="400" stroke="#e07b00" stroke-width="4" stroke-linecap="round"/>
<circle cx="710" cy="400" r="7" fill="#e07b00"/>
<line x1="710" y1="400" x2="710" y2="360" stroke="#e07b00" stroke-width="4" stroke-linecap="round"/>
<rect x="702" y="290" width="16" height="70" rx="3" fill="#f3e2b3" stroke="#6b5518" stroke-width="2"/>
<line x1="710" y1="290" x2="710" y2="250" stroke="#1d6fd6" stroke-width="4" stroke-linecap="round"/>
<circle cx="710" cy="250" r="6" fill="#1d6fd6"/>
<text x="722" y="318" font-size="12" fill="#1b2733" font-weight="600" text-anchor="start">1.8k</text>
<polyline points="710,400 760,400 760,490" stroke="#e07b00" stroke-width="4" fill="none" stroke-linejoin="round"/>
<line x1="744" y1="490" x2="776" y2="490" stroke="#1b2733" stroke-width="4" stroke-linecap="round"/>
<line x1="744" y1="500" x2="776" y2="500" stroke="#1b2733" stroke-width="4" stroke-linecap="round"/>
<line x1="760" y1="500" x2="760" y2="560" stroke="#222222" stroke-width="4" stroke-linecap="round"/>
<circle cx="760" cy="400" r="6" fill="#e07b00"/>
<text x="780" y="500" font-size="12" fill="#1b2733" font-weight="600" text-anchor="start">104</text>
<line x1="710" y1="400" x2="710" y2="440" stroke="#e07b00" stroke-width="4" stroke-linecap="round"/>
<rect x="672" y="442" width="78" height="26" rx="13" fill="#e07b00"/>
<text x="711.0" y="460" font-size="13" fill="#ffffff" font-weight="700" text-anchor="middle">→ GPIO5</text>
<rect x="782" y="380" width="48" height="60" rx="8" fill="#e9eef5" stroke="#5b6b7b" stroke-width="2"/>
<text x="806" y="406" font-size="14" fill="#1b2733" font-weight="700" text-anchor="middle">CT4</text>
<text x="806" y="424" font-size="11" fill="#3d4b59" font-weight="400" text-anchor="middle">jack</text>
<circle cx="830" cy="400" r="6" fill="#2a9d3f"/>
<text x="834" y="418" font-size="11" fill="#2a9d3f" font-weight="700" text-anchor="start">T</text>
<circle cx="806" cy="380" r="6" fill="#1d6fd6"/>
<line x1="806" y1="380" x2="806" y2="250" stroke="#1d6fd6" stroke-width="4" stroke-linecap="round"/>
<circle cx="806" cy="250" r="6" fill="#1d6fd6"/>
<text x="810" y="374" font-size="11" fill="#1d6fd6" font-weight="700" text-anchor="start">S</text>
<line x1="830" y1="400" x2="848" y2="400" stroke="#2a9d3f" stroke-width="4" stroke-linecap="round"/>
<circle cx="840" cy="400" r="6" fill="#2a9d3f"/>
<line x1="840" y1="400" x2="840" y2="360" stroke="#2a9d3f" stroke-width="4" stroke-linecap="round"/>
<rect x="832" y="300" width="16" height="60" rx="3" fill="#ffd6d6" stroke="#b01e1e" stroke-width="2" stroke-dasharray="5,3"/>
<polyline points="840,300 840,282 806,282" stroke="#1d6fd6" stroke-width="4" fill="none" stroke-linejoin="round"/>
<circle cx="806" cy="282" r="6" fill="#1d6fd6"/>
<text x="852" y="322" font-size="13" fill="#b01e1e" font-weight="700" text-anchor="start">R_B</text>
<text x="852" y="338" font-size="12" fill="#b01e1e" font-weight="400" text-anchor="start">24 Ω</text>
<text x="852" y="353" font-size="11" fill="#8a4b00" font-weight="400" text-anchor="start" font-style="italic">100A</text>
<rect x="848" y="392" width="40" height="16" rx="3" fill="#f3e2b3" stroke="#6b5518" stroke-width="2"/>
<text x="854" y="388" font-size="12" fill="#1b2733" font-weight="600" text-anchor="start">1k</text>
<line x1="888" y1="400" x2="900" y2="400" stroke="#e07b00" stroke-width="4" stroke-linecap="round"/>
<circle cx="900" cy="400" r="7" fill="#e07b00"/>
<line x1="900" y1="400" x2="900" y2="360" stroke="#e07b00" stroke-width="4" stroke-linecap="round"/>
<rect x="892" y="290" width="16" height="70" rx="3" fill="#f3e2b3" stroke="#6b5518" stroke-width="2"/>
<line x1="900" y1="290" x2="900" y2="250" stroke="#1d6fd6" stroke-width="4" stroke-linecap="round"/>
<circle cx="900" cy="250" r="6" fill="#1d6fd6"/>
<text x="912" y="318" font-size="12" fill="#1b2733" font-weight="600" text-anchor="start">1.8k</text>
<polyline points="900,400 950,400 950,490" stroke="#e07b00" stroke-width="4" fill="none" stroke-linejoin="round"/>
<line x1="934" y1="490" x2="966" y2="490" stroke="#1b2733" stroke-width="4" stroke-linecap="round"/>
<line x1="934" y1="500" x2="966" y2="500" stroke="#1b2733" stroke-width="4" stroke-linecap="round"/>
<line x1="950" y1="500" x2="950" y2="560" stroke="#222222" stroke-width="4" stroke-linecap="round"/>
<circle cx="950" cy="400" r="6" fill="#e07b00"/>
<text x="970" y="500" font-size="12" fill="#1b2733" font-weight="600" text-anchor="start">104</text>
<line x1="900" y1="400" x2="900" y2="440" stroke="#e07b00" stroke-width="4" stroke-linecap="round"/>
<rect x="862" y="442" width="78" height="26" rx="13" fill="#e07b00"/>
<text x="901.0" y="460" font-size="13" fill="#ffffff" font-weight="700" text-anchor="middle">→ GPIO6</text>
<rect x="972" y="380" width="48" height="60" rx="8" fill="#e9eef5" stroke="#5b6b7b" stroke-width="2"/>
<text x="996" y="406" font-size="14" fill="#1b2733" font-weight="700" text-anchor="middle">CT5</text>
<text x="996" y="424" font-size="11" fill="#3d4b59" font-weight="400" text-anchor="middle">jack</text>
<circle cx="1020" cy="400" r="6" fill="#2a9d3f"/>
<text x="1024" y="418" font-size="11" fill="#2a9d3f" font-weight="700" text-anchor="start">T</text>
<circle cx="996" cy="380" r="6" fill="#1d6fd6"/>
<line x1="996" y1="380" x2="996" y2="250" stroke="#1d6fd6" stroke-width="4" stroke-linecap="round"/>
<circle cx="996" cy="250" r="6" fill="#1d6fd6"/>
<text x="1000" y="374" font-size="11" fill="#1d6fd6" font-weight="700" text-anchor="start">S</text>
<line x1="1020" y1="400" x2="1038" y2="400" stroke="#2a9d3f" stroke-width="4" stroke-linecap="round"/>
<circle cx="1030" cy="400" r="6" fill="#2a9d3f"/>
<line x1="1030" y1="400" x2="1030" y2="360" stroke="#2a9d3f" stroke-width="4" stroke-linecap="round"/>
<rect x="1022" y="300" width="16" height="60" rx="3" fill="#ffd6d6" stroke="#b01e1e" stroke-width="2" stroke-dasharray="5,3"/>
<polyline points="1030,300 1030,282 996,282" stroke="#1d6fd6" stroke-width="4" fill="none" stroke-linejoin="round"/>
<circle cx="996" cy="282" r="6" fill="#1d6fd6"/>
<text x="1042" y="322" font-size="13" fill="#b01e1e" font-weight="700" text-anchor="start">R_B</text>
<text x="1042" y="338" font-size="12" fill="#b01e1e" font-weight="400" text-anchor="start">24 Ω</text>
<text x="1042" y="353" font-size="11" fill="#8a4b00" font-weight="400" text-anchor="start" font-style="italic">100A</text>
<rect x="1038" y="392" width="40" height="16" rx="3" fill="#f3e2b3" stroke="#6b5518" stroke-width="2"/>
<text x="1044" y="388" font-size="12" fill="#1b2733" font-weight="600" text-anchor="start">1k</text>
<line x1="1078" y1="400" x2="1090" y2="400" stroke="#e07b00" stroke-width="4" stroke-linecap="round"/>
<circle cx="1090" cy="400" r="7" fill="#e07b00"/>
<line x1="1090" y1="400" x2="1090" y2="360" stroke="#e07b00" stroke-width="4" stroke-linecap="round"/>
<rect x="1082" y="290" width="16" height="70" rx="3" fill="#f3e2b3" stroke="#6b5518" stroke-width="2"/>
<line x1="1090" y1="290" x2="1090" y2="250" stroke="#1d6fd6" stroke-width="4" stroke-linecap="round"/>
<circle cx="1090" cy="250" r="6" fill="#1d6fd6"/>
<text x="1102" y="318" font-size="12" fill="#1b2733" font-weight="600" text-anchor="start">1.8k</text>
<polyline points="1090,400 1140,400 1140,490" stroke="#e07b00" stroke-width="4" fill="none" stroke-linejoin="round"/>
<line x1="1124" y1="490" x2="1156" y2="490" stroke="#1b2733" stroke-width="4" stroke-linecap="round"/>
<line x1="1124" y1="500" x2="1156" y2="500" stroke="#1b2733" stroke-width="4" stroke-linecap="round"/>
<line x1="1140" y1="500" x2="1140" y2="560" stroke="#222222" stroke-width="4" stroke-linecap="round"/>
<circle cx="1140" cy="400" r="6" fill="#e07b00"/>
<text x="1160" y="500" font-size="12" fill="#1b2733" font-weight="600" text-anchor="start">104</text>
<line x1="1090" y1="400" x2="1090" y2="440" stroke="#e07b00" stroke-width="4" stroke-linecap="round"/>
<rect x="1052" y="442" width="78" height="26" rx="13" fill="#e07b00"/>
<text x="1091.0" y="460" font-size="13" fill="#ffffff" font-weight="700" text-anchor="middle">→ GPIO7</text>
<rect x="1162" y="380" width="48" height="60" rx="8" fill="#e9eef5" stroke="#5b6b7b" stroke-width="2"/>
<text x="1186" y="406" font-size="14" fill="#1b2733" font-weight="700" text-anchor="middle">CT6</text>
<text x="1186" y="424" font-size="11" fill="#3d4b59" font-weight="400" text-anchor="middle">jack</text>
<circle cx="1210" cy="400" r="6" fill="#2a9d3f"/>
<text x="1214" y="418" font-size="11" fill="#2a9d3f" font-weight="700" text-anchor="start">T</text>
<circle cx="1186" cy="380" r="6" fill="#1d6fd6"/>
<line x1="1186" y1="380" x2="1186" y2="250" stroke="#1d6fd6" stroke-width="4" stroke-linecap="round"/>
<circle cx="1186" cy="250" r="6" fill="#1d6fd6"/>
<text x="1190" y="374" font-size="11" fill="#1d6fd6" font-weight="700" text-anchor="start">S</text>
<line x1="1210" y1="400" x2="1228" y2="400" stroke="#2a9d3f" stroke-width="4" stroke-linecap="round"/>
<circle cx="1220" cy="400" r="6" fill="#2a9d3f"/>
<line x1="1220" y1="400" x2="1220" y2="360" stroke="#2a9d3f" stroke-width="4" stroke-linecap="round"/>
<rect x="1212" y="300" width="16" height="60" rx="3" fill="#ffd6d6" stroke="#b01e1e" stroke-width="2" stroke-dasharray="5,3"/>
<polyline points="1220,300 1220,282 1186,282" stroke="#1d6fd6" stroke-width="4" fill="none" stroke-linejoin="round"/>
<circle cx="1186" cy="282" r="6" fill="#1d6fd6"/>
<text x="1232" y="322" font-size="13" fill="#b01e1e" font-weight="700" text-anchor="start">R_B</text>
<text x="1232" y="338" font-size="12" fill="#b01e1e" font-weight="400" text-anchor="start">24 Ω</text>
<text x="1232" y="353" font-size="11" fill="#8a4b00" font-weight="400" text-anchor="start" font-style="italic">100A</text>
<rect x="1228" y="392" width="40" height="16" rx="3" fill="#f3e2b3" stroke="#6b5518" stroke-width="2"/>
<text x="1234" y="388" font-size="12" fill="#1b2733" font-weight="600" text-anchor="start">1k</text>
<line x1="1268" y1="400" x2="1280" y2="400" stroke="#e07b00" stroke-width="4" stroke-linecap="round"/>
<circle cx="1280" cy="400" r="7" fill="#e07b00"/>
<line x1="1280" y1="400" x2="1280" y2="360" stroke="#e07b00" stroke-width="4" stroke-linecap="round"/>
<rect x="1272" y="290" width="16" height="70" rx="3" fill="#f3e2b3" stroke="#6b5518" stroke-width="2"/>
<line x1="1280" y1="290" x2="1280" y2="250" stroke="#1d6fd6" stroke-width="4" stroke-linecap="round"/>
<circle cx="1280" cy="250" r="6" fill="#1d6fd6"/>
<text x="1292" y="318" font-size="12" fill="#1b2733" font-weight="600" text-anchor="start">1.8k</text>
<polyline points="1280,400 1330,400 1330,490" stroke="#e07b00" stroke-width="4" fill="none" stroke-linejoin="round"/>
<line x1="1314" y1="490" x2="1346" y2="490" stroke="#1b2733" stroke-width="4" stroke-linecap="round"/>
<line x1="1314" y1="500" x2="1346" y2="500" stroke="#1b2733" stroke-width="4" stroke-linecap="round"/>
<line x1="1330" y1="500" x2="1330" y2="560" stroke="#222222" stroke-width="4" stroke-linecap="round"/>
<circle cx="1330" cy="400" r="6" fill="#e07b00"/>
<text x="1350" y="500" font-size="12" fill="#1b2733" font-weight="600" text-anchor="start">104</text>
<line x1="1280" y1="400" x2="1280" y2="440" stroke="#e07b00" stroke-width="4" stroke-linecap="round"/>
<rect x="1242" y="442" width="78" height="26" rx="13" fill="#e07b00"/>
<text x="1281.0" y="460" font-size="13" fill="#ffffff" font-weight="700" text-anchor="middle">→ GPIO8</text>
<rect x="1380" y="90" width="190" height="480" rx="12" fill="#20303f" stroke="#0d161f" stroke-width="2"/>
<text x="1398" y="122" font-size="17" fill="#ffffff" font-weight="700" text-anchor="start">ESP32-S3</text>
<text x="1398" y="142" font-size="13" fill="#b9c7d4" font-weight="400" text-anchor="start">DevKit N16R8</text>
<circle cx="1380" cy="130" r="7" fill="#d62828"/>
<text x="1398" y="170" font-size="15" fill="#ff8a8a" font-weight="700" text-anchor="start">3V3</text>
<circle cx="1380" cy="205" r="7" fill="#e07b00"/>
<text x="1398" y="210" font-size="15" fill="#ffc07a" font-weight="700" text-anchor="start">GPIO1</text>
<text x="1470" y="210" font-size="13" fill="#b9c7d4" font-weight="400" text-anchor="start">CT1</text>
<circle cx="1380" cy="241" r="7" fill="#e07b00"/>
<text x="1398" y="246" font-size="15" fill="#ffc07a" font-weight="700" text-anchor="start">GPIO4</text>
<text x="1470" y="246" font-size="13" fill="#b9c7d4" font-weight="400" text-anchor="start">CT2</text>
<circle cx="1380" cy="277" r="7" fill="#e07b00"/>
<text x="1398" y="282" font-size="15" fill="#ffc07a" font-weight="700" text-anchor="start">GPIO5</text>
<text x="1470" y="282" font-size="13" fill="#b9c7d4" font-weight="400" text-anchor="start">CT3</text>
<circle cx="1380" cy="313" r="7" fill="#e07b00"/>
<text x="1398" y="318" font-size="15" fill="#ffc07a" font-weight="700" text-anchor="start">GPIO6</text>
<text x="1470" y="318" font-size="13" fill="#b9c7d4" font-weight="400" text-anchor="start">CT4</text>
<circle cx="1380" cy="349" r="7" fill="#e07b00"/>
<text x="1398" y="354" font-size="15" fill="#ffc07a" font-weight="700" text-anchor="start">GPIO7</text>
<text x="1470" y="354" font-size="13" fill="#b9c7d4" font-weight="400" text-anchor="start">CT5</text>
<circle cx="1380" cy="385" r="7" fill="#e07b00"/>
<text x="1398" y="390" font-size="15" fill="#ffc07a" font-weight="700" text-anchor="start">GPIO8</text>
<text x="1470" y="390" font-size="13" fill="#b9c7d4" font-weight="400" text-anchor="start">CT6</text>
<circle cx="1380" cy="421" r="7" fill="#7b2cbf"/>
<text x="1398" y="426" font-size="15" fill="#d7b4ff" font-weight="700" text-anchor="start">GPIO9</text>
<text x="1470" y="426" font-size="13" fill="#b9c7d4" font-weight="400" text-anchor="start">Voltage</text>
<circle cx="1380" cy="457" r="7" fill="#e07b00"/>
<text x="1398" y="462" font-size="15" fill="#ffc07a" font-weight="700" text-anchor="start">GPIO10</text>
<text x="1470" y="462" font-size="13" fill="#b9c7d4" font-weight="400" text-anchor="start">Bias mon.*</text>
<circle cx="1380" cy="540" r="7" fill="#aaaaaa"/>
<text x="1398" y="545" font-size="15" fill="#dddddd" font-weight="700" text-anchor="start">GND</text>
<text x="30" y="632" font-size="18" fill="#1b2733" font-weight="700" text-anchor="start">VOLTAGE: ZMPT101B module (ready-made blue board)</text>
<rect x="40" y="660" width="120" height="110" rx="10" fill="#fff0f0" stroke="#c0392b" stroke-width="2.5"/>
<text x="100" y="690" font-size="15" fill="#c0392b" font-weight="700" text-anchor="middle">230 V AC</text>
<text x="100" y="712" font-size="12" fill="#3d4b59" font-weight="400" text-anchor="middle">from MCB</text>
<text x="100" y="740" font-size="12" fill="#3d4b59" font-weight="400" text-anchor="middle">via 100mA fuse</text>
<line x1="160" y1="690" x2="230" y2="690" stroke="#8b4513" stroke-width="5" stroke-linecap="round"/>
<text x="190" y="682" font-size="14" fill="#8b4513" font-weight="700" text-anchor="start">L</text>
<line x1="160" y1="740" x2="230" y2="740" stroke="#1f3a93" stroke-width="5" stroke-linecap="round"/>
<text x="190" y="760" font-size="14" fill="#1f3a93" font-weight="700" text-anchor="start">N</text>
<rect x="230" y="650" width="230" height="130" rx="10" fill="#dbe9ff" stroke="#1d4f91" stroke-width="2"/>
<text x="345" y="690" font-size="17" fill="#1d4f91" font-weight="700" text-anchor="middle">ZMPT101B</text>
<text x="345" y="710" font-size="13" fill="#3d4b59" font-weight="400" text-anchor="middle">module</text>
<text x="345" y="738" font-size="11.5" fill="#3d4b59" font-weight="400" text-anchor="middle">trim pot: GPIO9 ≈ 1.5–2 Vpp</text>
<text x="345" y="756" font-size="11.5" fill="#3d4b59" font-weight="400" text-anchor="middle">(check with firmware)</text>
<circle cx="460" cy="670" r="6" fill="#1d4f91"/>
<text x="452" y="675" font-size="12" fill="#1d4f91" font-weight="700" text-anchor="end">VCC</text>
<circle cx="460" cy="715" r="6" fill="#1d4f91"/>
<text x="452" y="720" font-size="12" fill="#1d4f91" font-weight="700" text-anchor="end">OUT</text>
<circle cx="460" cy="760" r="6" fill="#1d4f91"/>
<text x="452" y="765" font-size="12" fill="#1d4f91" font-weight="700" text-anchor="end">GND</text>
<line x1="460" y1="670" x2="520" y2="670" stroke="#d62828" stroke-width="4" stroke-linecap="round"/>
<rect x="520" y="657" width="80" height="26" rx="13" fill="#d62828"/>
<text x="560.0" y="675" font-size="13" fill="#ffffff" font-weight="700" text-anchor="middle">5V (VIN)</text>
<line x1="460" y1="760" x2="520" y2="760" stroke="#222222" stroke-width="4" stroke-linecap="round"/>
<rect x="520" y="747" width="70" height="26" rx="13" fill="#222222"/>
<text x="555.0" y="765" font-size="13" fill="#ffffff" font-weight="700" text-anchor="middle">GND</text>
<line x1="460" y1="715" x2="610" y2="715" stroke="#7b2cbf" stroke-width="4" stroke-linecap="round"/>
<rect x="610" y="707" width="40" height="16" rx="3" fill="#f3e2b3" stroke="#6b5518" stroke-width="2"/>
<text x="612" y="703" font-size="12" fill="#1b2733" font-weight="600" text-anchor="start">10k</text>
<line x1="650" y1="715" x2="800" y2="715" stroke="#7b2cbf" stroke-width="4" stroke-linecap="round"/>
<circle cx="690" cy="715" r="7" fill="#7b2cbf"/>
<circle cx="745" cy="715" r="7" fill="#7b2cbf"/>
<rect x="800" y="702" width="76" height="26" rx="13" fill="#7b2cbf"/>
<text x="838.0" y="720" font-size="13" fill="#ffffff" font-weight="700" text-anchor="middle">→ GPIO9</text>
<line x1="690" y1="715" x2="690" y2="728" stroke="#7b2cbf" stroke-width="4" stroke-linecap="round"/>
<rect x="682" y="728" width="16" height="40" rx="3" fill="#f3e2b3" stroke="#6b5518" stroke-width="2"/>
<line x1="690" y1="768" x2="690" y2="788" stroke="#222222" stroke-width="4" stroke-linecap="round"/>
<text x="680" y="754" font-size="12" fill="#1b2733" font-weight="600" text-anchor="end">22k</text>
<line x1="745" y1="715" x2="745" y2="750" stroke="#7b2cbf" stroke-width="4" stroke-linecap="round"/>
<line x1="729" y1="750" x2="761" y2="750" stroke="#1b2733" stroke-width="4" stroke-linecap="round"/>
<line x1="729" y1="760" x2="761" y2="760" stroke="#1b2733" stroke-width="4" stroke-linecap="round"/>
<line x1="745" y1="760" x2="745" y2="788" stroke="#222222" stroke-width="4" stroke-linecap="round"/>
<text x="767" y="760" font-size="12" fill="#1b2733" font-weight="600" text-anchor="start">103</text>
<line x1="690" y1="788" x2="745" y2="788" stroke="#222222" stroke-width="4" stroke-linecap="round"/>
<line x1="745" y1="788" x2="800" y2="788" stroke="#222222" stroke-width="4" stroke-linecap="round"/>
<rect x="800" y="775" width="60" height="26" rx="13" fill="#222222"/>
<text x="830.0" y="793" font-size="13" fill="#ffffff" font-weight="700" text-anchor="middle">GND</text>
<rect x="880" y="650" width="690" height="140" rx="10" fill="#fff6f0" stroke="#e0a070" stroke-width="1.5"/>
<text x="898" y="676" font-size="15" fill="#a33b00" font-weight="700" text-anchor="start">ZMPT101B notes</text>
<text x="898" y="700" font-size="13" fill="#1b2733" font-weight="400" text-anchor="start">• Power the module from 5 V (DevKit 5V/VIN). Its LM358 cannot swing high enough on 3.3 V.</text>
<text x="898" y="721" font-size="13" fill="#1b2733" font-weight="400" text-anchor="start">• 10k/22k scales OUT (≈2.5 V centre) to ≈1.7 V at GPIO9. Check GPIO9 with a meter: DC ≈ 1.7 V, never > 3.3 V.</text>
<text x="898" y="742" font-size="13" fill="#1b2733" font-weight="400" text-anchor="start">• Mains L/N go ONLY into the module's screw terminal, through a 100 mA fuse. Never on the breadboard.</text>
<text x="898" y="763" font-size="13" fill="#1b2733" font-weight="400" text-anchor="start">• The CT6 PCB replaces this module with its own on-board ZMPT101B circuit (same GPIO9).</text>
<rect x="30" y="826" width="1540" height="44" rx="8" fill="#f7f9fb" stroke="#b8c4d0" stroke-width="1.5"/>
<line x1="50" y1="848" x2="86" y2="848" stroke="#d62828" stroke-width="5" stroke-linecap="round"/>
<text x="94" y="853" font-size="13.5" fill="#1b2733" font-weight="400" text-anchor="start">3V3 / 5V</text>
<line x1="230" y1="848" x2="266" y2="848" stroke="#222222" stroke-width="5" stroke-linecap="round"/>
<text x="274" y="853" font-size="13.5" fill="#1b2733" font-weight="400" text-anchor="start">GND</text>
<line x1="410" y1="848" x2="446" y2="848" stroke="#1d6fd6" stroke-width="5" stroke-linecap="round"/>
<text x="454" y="853" font-size="13.5" fill="#1b2733" font-weight="400" text-anchor="start">BIAS / CT sleeve</text>
<line x1="590" y1="848" x2="626" y2="848" stroke="#2a9d3f" stroke-width="5" stroke-linecap="round"/>
<text x="634" y="853" font-size="13.5" fill="#1b2733" font-weight="400" text-anchor="start">CT tip</text>
<line x1="770" y1="848" x2="806" y2="848" stroke="#e07b00" stroke-width="5" stroke-linecap="round"/>
<text x="814" y="853" font-size="13.5" fill="#1b2733" font-weight="400" text-anchor="start">CT to ADC</text>
<line x1="950" y1="848" x2="986" y2="848" stroke="#7b2cbf" stroke-width="5" stroke-linecap="round"/>
<text x="994" y="853" font-size="13.5" fill="#1b2733" font-weight="400" text-anchor="start">Voltage signal</text>
<line x1="1130" y1="848" x2="1166" y2="848" stroke="#8b4513" stroke-width="5" stroke-linecap="round"/>
<text x="1174" y="853" font-size="13.5" fill="#1b2733" font-weight="400" text-anchor="start">Mains L</text>
<line x1="1310" y1="848" x2="1346" y2="848" stroke="#1f3a93" stroke-width="5" stroke-linecap="round"/>
<text x="1354" y="853" font-size="13.5" fill="#1b2733" font-weight="400" text-anchor="start">Mains N</text>
<text x="1480" y="853" font-size="13" fill="#3d4b59" font-weight="400" text-anchor="start">● = joint</text>
<rect x="30" y="888" width="520" height="308" rx="8" fill="#f7f9fb" stroke="#b8c4d0" stroke-width="1.5"/>
<text x="46" y="916" font-size="15" fill="#1b2733" font-weight="700" text-anchor="start">Home Assistant settings per CT type</text>
<text x="46" y="942" font-size="13.5" fill="#1b2733" font-weight="700" text-anchor="start">100A/50mA CT (SCT-013-000) + 24 Ω R_B:</text>
<text x="46" y="963" font-size="13.5" fill="#1b2733" font-weight="400" text-anchor="start">  Burden 24 · Secondary 0.05 · Primary 100 · Cal 1.555</text>
<text x="46" y="984" font-size="13.5" fill="#1b2733" font-weight="700" text-anchor="start">30A/1V CT (SCT-013-030), NO R_B:</text>
<text x="46" y="1005" font-size="13.5" fill="#1b2733" font-weight="400" text-anchor="start">  Burden 1 · Secondary 1 · Primary 30 · Cal 1.555</text>
<text x="46" y="1026" font-size="8" fill="#1b2733" font-weight="400" text-anchor="start"></text>
<text x="46" y="1047" font-size="12.5" fill="#3d4b59" font-weight="400" text-anchor="start">1.555 undoes the 1k/1.8k divider (×0.643).</text>
<text x="46" y="1068" font-size="12.5" fill="#3d4b59" font-weight="400" text-anchor="start">Fine-tune: Cal = 1.555 × (clamp-meter A ÷ reading A).</text>
<text x="46" y="1089" font-size="12.5" fill="#3d4b59" font-weight="400" text-anchor="start">Tested: 30A CT 12.66 A (water heater), 0.33 A (light+fan);</text>
<text x="46" y="1110" font-size="12.5" fill="#3d4b59" font-weight="400" text-anchor="start">100A CT + 24 Ω 4.6 A (induction cooker).</text>
<text x="46" y="1131" font-size="8" fill="#1b2733" font-weight="400" text-anchor="start"></text>
<text x="46" y="1152" font-size="12.5" fill="#3d4b59" font-weight="400" text-anchor="start">* GPIO10 bias monitor is optional: BIAS → 1k → GPIO10.</text>
<text x="46" y="1173" font-size="12.5" fill="#a33b00" font-weight="600" text-anchor="start">Current firmware reads CT1 only; 6-ch + voltage firmware is next.</text>
<rect x="565" y="888" width="480" height="308" rx="8" fill="#f7f9fb" stroke="#b8c4d0" stroke-width="1.5"/>
<text x="581" y="916" font-size="15" fill="#1b2733" font-weight="700" text-anchor="start">Parts for the full build</text>
<text x="581" y="942" font-size="13.5" fill="#1b2733" font-weight="400" text-anchor="start">Shared bias: R1, R2 10 kΩ ×2 · C1 100 µF ×1</text>
<text x="581" y="963" font-size="13.5" fill="#1b2733" font-weight="700" text-anchor="start">Per CT channel (×6):</text>
<text x="581" y="984" font-size="13.5" fill="#1b2733" font-weight="400" text-anchor="start">  1 kΩ ×6 (brown-black-red)</text>
<text x="581" y="1005" font-size="13.5" fill="#1b2733" font-weight="400" text-anchor="start">  1.8 kΩ ×6 (brown-grey-red)</text>
<text x="581" y="1026" font-size="13.5" fill="#1b2733" font-weight="400" text-anchor="start">  104 ceramic ×6</text>
<text x="581" y="1047" font-size="13.5" fill="#1b2733" font-weight="400" text-anchor="start">  24 Ω ×1 per 100A CT (red-yellow-black)</text>
<text x="581" y="1068" font-size="13.5" fill="#1b2733" font-weight="400" text-anchor="start">  3.5 mm jack ×6 (tip + sleeve used)</text>
<text x="581" y="1089" font-size="13.5" fill="#1b2733" font-weight="400" text-anchor="start">Voltage: ZMPT101B module ×1 · 10 kΩ · 22 kΩ · 103 ×1</text>
<text x="581" y="1110" font-size="13.5" fill="#3d4b59" font-weight="400" text-anchor="start">Optional: BAT54S ×7 clamps (ADC node → GND/3V3)</text>
<text x="581" y="1131" font-size="8" fill="#1b2733" font-weight="400" text-anchor="start"></text>
<text x="581" y="1152" font-size="12.5" fill="#3d4b59" font-weight="400" text-anchor="start">Tip = signal, Sleeve = BIAS, Ring = not used.</text>
<text x="581" y="1173" font-size="12.5" fill="#3d4b59" font-weight="400" text-anchor="start">Keep each R_B's legs right at its own jack.</text>
<rect x="1060" y="888" width="510" height="308" rx="8" fill="#fff6f0" stroke="#e0a070" stroke-width="1.5"/>
<text x="1076" y="916" font-size="15" fill="#a33b00" font-weight="700" text-anchor="start">Check before clamping (every channel)</text>
<text x="1076" y="942" font-size="13.5" fill="#1b2733" font-weight="700" text-anchor="start">1. Meter Ω tip↔sleeve, CT plugged, unclamped:</text>
<text x="1076" y="963" font-size="13" fill="#1b2733" font-weight="400" text-anchor="start">   100A CT + 24 Ω → ≈15–24 Ω · 30A/1V CT → ≈60–70 Ω</text>
<text x="1076" y="984" font-size="13.5" fill="#1b2733" font-weight="400" text-anchor="start">2. Unclamped: Bias ≈1.6 V, RMS few mV, Clipped 0</text>
<text x="1076" y="1005" font-size="13.5" fill="#1b2733" font-weight="400" text-anchor="start">3. Clamp ONE wire (live only), small load first</text>
<text x="1076" y="1026" font-size="13.5" fill="#b01e1e" font-weight="700" text-anchor="start">4. Min/Max hit 0/4095 or Clipped > 0</text>
<text x="1076" y="1047" font-size="13.5" fill="#b01e1e" font-weight="400" text-anchor="start">   → unclamp immediately (burden missing)</text>
<text x="1076" y="1068" font-size="8" fill="#1b2733" font-weight="400" text-anchor="start"></text>
<text x="1076" y="1089" font-size="12.5" fill="#3d4b59" font-weight="400" text-anchor="start">Never run a 100A/50mA CT without its 24 Ω burden.</text>
<text x="1076" y="1110" font-size="12.5" fill="#3d4b59" font-weight="400" text-anchor="start">No 230 V wiring on the breadboard.</text>
<text x="1076" y="1131" font-size="12.5" fill="#3d4b59" font-weight="400" text-anchor="start">ADC1 pins only; avoid GPIO3 and GPIO11–20.</text>
</svg>
