%TF.GenerationSoftware,KiCad,Pcbnew,10.0.6*%
%TF.CreationDate,2026-09-24T18:21:16+05:30*%
%TF.ProjectId,ct6-energy-monitor,6374362d-656e-4657-9267-792d6d6f6e69,rev?*%
%TF.SameCoordinates,Original*%
%TF.FileFunction,Soldermask,Top*%
%TF.FilePolarity,Negative*%
%FSLAX46Y46*%
G04 Gerber Fmt 4.6, Leading zero omitted, Abs format (unit mm)*
G04 Created by KiCad (PCBNEW 10.0.6) date 2026-09-24 18:21:16*
%MOMM*%
%LPD*%
G01*
G04 APERTURE LIST*
G04 Aperture macros list*
%AMRoundRect*
0 Rectangle with rounded corners*
0 $1 Rounding radius*
0 $2 $3 $4 $5 $6 $7 $8 $9 X,Y pos of 4 corners*
0 Add a 4 corners polygon primitive as box body*
4,1,4,$2,$3,$4,$5,$6,$7,$8,$9,$2,$3,0*
0 Add four circle primitives for the rounded corners*
1,1,$1+$1,$2,$3*
1,1,$1+$1,$4,$5*
1,1,$1+$1,$6,$7*
1,1,$1+$1,$8,$9*
0 Add four rect primitives between the rounded corners*
20,1,$1+$1,$2,$3,$4,$5,0*
20,1,$1+$1,$4,$5,$6,$7,0*
20,1,$1+$1,$6,$7,$8,$9,0*
20,1,$1+$1,$8,$9,$2,$3,0*%
G04 Aperture macros list end*
%ADD10RoundRect,0.250000X-0.250000X-0.475000X0.250000X-0.475000X0.250000X0.475000X-0.250000X0.475000X0*%
%ADD11C,1.200000*%
%ADD12O,1.200000X2.200000*%
%ADD13O,2.200000X1.200000*%
%ADD14RoundRect,0.250000X0.450000X-0.262500X0.450000X0.262500X-0.450000X0.262500X-0.450000X-0.262500X0*%
%ADD15RoundRect,0.175000X-0.425000X0.175000X-0.425000X-0.175000X0.425000X-0.175000X0.425000X0.175000X0*%
%ADD16RoundRect,0.190000X0.410000X-0.190000X0.410000X0.190000X-0.410000X0.190000X-0.410000X-0.190000X0*%
%ADD17RoundRect,0.200000X0.400000X-0.200000X0.400000X0.200000X-0.400000X0.200000X-0.400000X-0.200000X0*%
%ADD18RoundRect,0.175000X0.425000X-0.175000X0.425000X0.175000X-0.425000X0.175000X-0.425000X-0.175000X0*%
%ADD19RoundRect,0.190000X-0.410000X0.190000X-0.410000X-0.190000X0.410000X-0.190000X0.410000X0.190000X0*%
%ADD20RoundRect,0.200000X-0.400000X0.200000X-0.400000X-0.200000X0.400000X-0.200000X0.400000X0.200000X0*%
%ADD21O,1.700000X1.100000*%
%ADD22RoundRect,0.250000X1.050000X-1.050000X1.050000X1.050000X-1.050000X1.050000X-1.050000X-1.050000X0*%
%ADD23C,2.600000*%
%ADD24RoundRect,0.250000X0.475000X-0.250000X0.475000X0.250000X-0.475000X0.250000X-0.475000X-0.250000X0*%
%ADD25RoundRect,0.250000X0.650000X-0.325000X0.650000X0.325000X-0.650000X0.325000X-0.650000X-0.325000X0*%
%ADD26C,3.200000*%
%ADD27RoundRect,0.250000X0.625000X-0.312500X0.625000X0.312500X-0.625000X0.312500X-0.625000X-0.312500X0*%
%ADD28RoundRect,0.150000X-0.587500X-0.150000X0.587500X-0.150000X0.587500X0.150000X-0.587500X0.150000X0*%
%ADD29R,1.700000X1.700000*%
%ADD30C,1.700000*%
%ADD31RoundRect,0.218750X-0.218750X-0.381250X0.218750X-0.381250X0.218750X0.381250X-0.218750X0.381250X0*%
%ADD32C,1.600000*%
%ADD33C,2.000000*%
%ADD34RoundRect,0.250000X0.650000X-1.000000X0.650000X1.000000X-0.650000X1.000000X-0.650000X-1.000000X0*%
%ADD35RoundRect,0.250000X-0.262500X-0.450000X0.262500X-0.450000X0.262500X0.450000X-0.262500X0.450000X0*%
%ADD36RoundRect,0.150000X-0.825000X-0.150000X0.825000X-0.150000X0.825000X0.150000X-0.825000X0.150000X0*%
%ADD37R,2.200000X2.200000*%
%ADD38C,2.200000*%
%ADD39RoundRect,0.250000X0.625000X-0.375000X0.625000X0.375000X-0.625000X0.375000X-0.625000X-0.375000X0*%
G04 APERTURE END LIST*
D10*
%TO.C,C3*%
X69050000Y58000000D03*
X70950000Y58000000D03*
%TD*%
D11*
%TO.C,J13*%
X31000000Y4500000D03*
X31000000Y2000000D03*
X36000000Y9500000D03*
X41000000Y4500000D03*
X41000000Y2000000D03*
D12*
X31000000Y9500000D03*
D13*
X36000000Y4500000D03*
D12*
X41000000Y9500000D03*
%TD*%
D14*
%TO.C,R48*%
X62000000Y69087500D03*
X62000000Y70912500D03*
%TD*%
%TO.C,R111*%
X7000000Y25087500D03*
X7000000Y26912500D03*
%TD*%
D15*
%TO.C,J2*%
X6580000Y46500000D03*
D16*
X6580000Y44480000D03*
D17*
X6580000Y43250000D03*
D18*
X6580000Y45500000D03*
D19*
X6580000Y47520000D03*
D20*
X6580000Y48750000D03*
D21*
X6500000Y50320000D03*
X2700000Y50320000D03*
X6500000Y41680000D03*
X2700000Y41680000D03*
%TD*%
D11*
%TO.C,J12*%
X17000000Y4500000D03*
X17000000Y2000000D03*
X22000000Y9500000D03*
X27000000Y4500000D03*
X27000000Y2000000D03*
D12*
X17000000Y9500000D03*
D13*
X22000000Y4500000D03*
D12*
X27000000Y9500000D03*
%TD*%
D22*
%TO.C,J1*%
X6000000Y32000000D03*
D23*
X6000000Y37080000D03*
%TD*%
D24*
%TO.C,C12*%
X23500000Y19050000D03*
X23500000Y20950000D03*
%TD*%
D25*
%TO.C,C1*%
X27000000Y36525000D03*
X27000000Y39475000D03*
%TD*%
D24*
%TO.C,C13*%
X37500000Y19050000D03*
X37500000Y20950000D03*
%TD*%
D14*
%TO.C,R112*%
X9500000Y25087500D03*
X9500000Y26912500D03*
%TD*%
D26*
%TO.C,H3*%
X116500000Y3500000D03*
%TD*%
D24*
%TO.C,C41*%
X50000000Y77050000D03*
X50000000Y78950000D03*
%TD*%
D27*
%TO.C,R44*%
X23000000Y78537500D03*
X23000000Y81462500D03*
%TD*%
D28*
%TO.C,D14*%
X53562500Y19950000D03*
X53562500Y18050000D03*
X55437500Y19000000D03*
%TD*%
D14*
%TO.C,R131*%
X35000000Y25087500D03*
X35000000Y26912500D03*
%TD*%
D29*
%TO.C,JP13*%
X31500000Y27000000D03*
D30*
X31500000Y24460000D03*
X31500000Y21920000D03*
%TD*%
D14*
%TO.C,R122*%
X23500000Y25087500D03*
X23500000Y26912500D03*
%TD*%
D22*
%TO.C,J5*%
X6000000Y74000000D03*
D23*
X6000000Y79080000D03*
%TD*%
D27*
%TO.C,R41*%
X23000000Y63537500D03*
X23000000Y66462500D03*
%TD*%
D31*
%TO.C,FB1*%
X68937500Y64000000D03*
X71062500Y64000000D03*
%TD*%
D32*
%TO.C,RV1*%
X14000000Y71000000D03*
X19000000Y69200000D03*
%TD*%
D10*
%TO.C,C6*%
X55050000Y63000000D03*
X56950000Y63000000D03*
%TD*%
D14*
%TO.C,R1*%
X11000000Y48087500D03*
X11000000Y49912500D03*
%TD*%
D29*
%TO.C,JP12*%
X17500000Y27000000D03*
D30*
X17500000Y24460000D03*
X17500000Y21920000D03*
%TD*%
D14*
%TO.C,R4*%
X48000000Y64087500D03*
X48000000Y65912500D03*
%TD*%
D24*
%TO.C,C11*%
X9500000Y19050000D03*
X9500000Y20950000D03*
%TD*%
D27*
%TO.C,R43*%
X23000000Y73537500D03*
X23000000Y76462500D03*
%TD*%
D14*
%TO.C,R121*%
X21000000Y25087500D03*
X21000000Y26912500D03*
%TD*%
D28*
%TO.C,D12*%
X25562500Y19950000D03*
X25562500Y18050000D03*
X27437500Y19000000D03*
%TD*%
D29*
%TO.C,JP11*%
X3500000Y27000000D03*
D30*
X3500000Y24460000D03*
X3500000Y21920000D03*
%TD*%
D33*
%TO.C,F2*%
X9000000Y61000000D03*
X14080000Y60990000D03*
%TD*%
D24*
%TO.C,C16*%
X79500000Y19050000D03*
X79500000Y20950000D03*
%TD*%
D34*
%TO.C,D1*%
X22000000Y36000000D03*
X22000000Y40000000D03*
%TD*%
D11*
%TO.C,J11*%
X3000000Y4500000D03*
X3000000Y2000000D03*
X8000000Y9500000D03*
X13000000Y4500000D03*
X13000000Y2000000D03*
D12*
X3000000Y9500000D03*
D13*
X8000000Y4500000D03*
D12*
X13000000Y9500000D03*
%TD*%
D14*
%TO.C,R47*%
X47000000Y77087500D03*
X47000000Y78912500D03*
%TD*%
%TO.C,R132*%
X37500000Y25087500D03*
X37500000Y26912500D03*
%TD*%
%TO.C,R113*%
X12000000Y25087500D03*
X12000000Y26912500D03*
%TD*%
%TO.C,R3*%
X48000000Y69087500D03*
X48000000Y70912500D03*
%TD*%
%TO.C,R163*%
X82000000Y25087500D03*
X82000000Y26912500D03*
%TD*%
D10*
%TO.C,C5*%
X55050000Y75000000D03*
X56950000Y75000000D03*
%TD*%
D11*
%TO.C,J15*%
X59000000Y4500000D03*
X59000000Y2000000D03*
X64000000Y9500000D03*
X69000000Y4500000D03*
X69000000Y2000000D03*
D12*
X59000000Y9500000D03*
D13*
X64000000Y4500000D03*
D12*
X69000000Y9500000D03*
%TD*%
D29*
%TO.C,JP15*%
X59500000Y27000000D03*
D30*
X59500000Y24460000D03*
X59500000Y21920000D03*
%TD*%
D14*
%TO.C,R2*%
X11000000Y43087500D03*
X11000000Y44912500D03*
%TD*%
D24*
%TO.C,C4*%
X51000000Y64050000D03*
X51000000Y65950000D03*
%TD*%
D29*
%TO.C,J6*%
X114000000Y24000000D03*
D30*
X114000000Y21460000D03*
X114000000Y18920000D03*
X114000000Y16380000D03*
%TD*%
D35*
%TO.C,R6*%
X61087500Y60000000D03*
X62912500Y60000000D03*
%TD*%
%TO.C,R5*%
X61087500Y64000000D03*
X62912500Y64000000D03*
%TD*%
D14*
%TO.C,R142*%
X51500000Y25087500D03*
X51500000Y26912500D03*
%TD*%
D29*
%TO.C,J4*%
X106860000Y85000000D03*
D30*
X106860000Y82460000D03*
X106860000Y79920000D03*
X106860000Y77380000D03*
X106860000Y74840000D03*
X106860000Y72300000D03*
X106860000Y69760000D03*
X106860000Y67220000D03*
X106860000Y64680000D03*
X106860000Y62140000D03*
X106860000Y59600000D03*
X106860000Y57060000D03*
X106860000Y54520000D03*
X106860000Y51980000D03*
X106860000Y49440000D03*
X106860000Y46900000D03*
X106860000Y44360000D03*
X106860000Y41820000D03*
X106860000Y39280000D03*
X106860000Y36740000D03*
X106860000Y34200000D03*
X106860000Y31660000D03*
%TD*%
D29*
%TO.C,J3*%
X84000000Y85000000D03*
D30*
X84000000Y82460000D03*
X84000000Y79920000D03*
X84000000Y77380000D03*
X84000000Y74840000D03*
X84000000Y72300000D03*
X84000000Y69760000D03*
X84000000Y67220000D03*
X84000000Y64680000D03*
X84000000Y62140000D03*
X84000000Y59600000D03*
X84000000Y57060000D03*
X84000000Y54520000D03*
X84000000Y51980000D03*
X84000000Y49440000D03*
X84000000Y46900000D03*
X84000000Y44360000D03*
X84000000Y41820000D03*
X84000000Y39280000D03*
X84000000Y36740000D03*
X84000000Y34200000D03*
X84000000Y31660000D03*
%TD*%
D14*
%TO.C,R162*%
X79500000Y25087500D03*
X79500000Y26912500D03*
%TD*%
%TO.C,R141*%
X49000000Y25087500D03*
X49000000Y26912500D03*
%TD*%
D26*
%TO.C,H2*%
X116500000Y86500000D03*
%TD*%
D14*
%TO.C,R123*%
X26000000Y25087500D03*
X26000000Y26912500D03*
%TD*%
D26*
%TO.C,H4*%
X95000000Y3500000D03*
%TD*%
D28*
%TO.C,D15*%
X67562500Y19950000D03*
X67562500Y18050000D03*
X69437500Y19000000D03*
%TD*%
D36*
%TO.C,U1*%
X53525000Y71905000D03*
X53525000Y70635000D03*
X53525000Y69365000D03*
X53525000Y68095000D03*
X58475000Y68095000D03*
X58475000Y69365000D03*
X58475000Y70635000D03*
X58475000Y71905000D03*
%TD*%
D14*
%TO.C,R133*%
X40000000Y25087500D03*
X40000000Y26912500D03*
%TD*%
D24*
%TO.C,C42*%
X65000000Y69050000D03*
X65000000Y70950000D03*
%TD*%
D14*
%TO.C,R161*%
X77000000Y25087500D03*
X77000000Y26912500D03*
%TD*%
D27*
%TO.C,R42*%
X23000000Y68537500D03*
X23000000Y71462500D03*
%TD*%
D37*
%TO.C,T1*%
X30500000Y80350000D03*
D38*
X30500000Y67650000D03*
X40500000Y67650000D03*
X40500000Y80350000D03*
%TD*%
D28*
%TO.C,D13*%
X39562500Y19950000D03*
X39562500Y18050000D03*
X41437500Y19000000D03*
%TD*%
%TO.C,D16*%
X81562500Y19950000D03*
X81562500Y18050000D03*
X83437500Y19000000D03*
%TD*%
D29*
%TO.C,JP14*%
X45500000Y27000000D03*
D30*
X45500000Y24460000D03*
X45500000Y21920000D03*
%TD*%
D14*
%TO.C,R151*%
X63000000Y25087500D03*
X63000000Y26912500D03*
%TD*%
D10*
%TO.C,C7*%
X55050000Y60000000D03*
X56950000Y60000000D03*
%TD*%
%TO.C,C2*%
X69050000Y61000000D03*
X70950000Y61000000D03*
%TD*%
D14*
%TO.C,R152*%
X65500000Y25087500D03*
X65500000Y26912500D03*
%TD*%
D28*
%TO.C,D11*%
X11562500Y19950000D03*
X11562500Y18050000D03*
X13437500Y19000000D03*
%TD*%
D39*
%TO.C,F1*%
X17000000Y36600000D03*
X17000000Y39400000D03*
%TD*%
D26*
%TO.C,H1*%
X3500000Y86500000D03*
%TD*%
D24*
%TO.C,C14*%
X51500000Y19050000D03*
X51500000Y20950000D03*
%TD*%
D11*
%TO.C,J16*%
X73000000Y4500000D03*
X73000000Y2000000D03*
X78000000Y9500000D03*
X83000000Y4500000D03*
X83000000Y2000000D03*
D12*
X73000000Y9500000D03*
D13*
X78000000Y4500000D03*
D12*
X83000000Y9500000D03*
%TD*%
D24*
%TO.C,C15*%
X65500000Y19050000D03*
X65500000Y20950000D03*
%TD*%
D11*
%TO.C,J14*%
X45000000Y4500000D03*
X45000000Y2000000D03*
X50000000Y9500000D03*
X55000000Y4500000D03*
X55000000Y2000000D03*
D12*
X45000000Y9500000D03*
D13*
X50000000Y4500000D03*
D12*
X55000000Y9500000D03*
%TD*%
D14*
%TO.C,R143*%
X54000000Y25087500D03*
X54000000Y26912500D03*
%TD*%
%TO.C,R153*%
X68000000Y25087500D03*
X68000000Y26912500D03*
%TD*%
D29*
%TO.C,JP16*%
X73500000Y27000000D03*
D30*
X73500000Y24460000D03*
X73500000Y21920000D03*
%TD*%
D28*
%TO.C,D41*%
X67562500Y70950000D03*
X67562500Y69050000D03*
X69437500Y70000000D03*
%TD*%
M02*
