M48
; DRILL file KiCad 10.0.6 date 2026-09-24T18:21:17
; FORMAT={-:-/ absolute / metric / decimal}
; #@! TF.CreationDate,2026-09-24T18:21:17+05:30
; #@! TF.GenerationSoftware,Kicad,Pcbnew,10.0.6
; #@! TF.FileFunction,Plated,1,2,PTH
FMAT,2
METRIC
; #@! TA.AperFunction,Plated,PTH,ViaDrill
T1C0.300
; #@! TA.AperFunction,Plated,PTH,ComponentDrill
T2C0.400
; #@! TA.AperFunction,Plated,PTH,ComponentDrill
T3C0.600
; #@! TA.AperFunction,Plated,PTH,ComponentDrill
T4C1.000
; #@! TA.AperFunction,Plated,PTH,ComponentDrill
T5C1.200
; #@! TA.AperFunction,Plated,PTH,ComponentDrill
T6C1.300
%
G90
G05
T1
X15.267Y26.595
X27.211Y24.611
X37.48Y23.9
X38.75Y25.396
X50.27Y26.925
X56.552Y67.727
X58.007Y75.0
X65.5Y24.072
X66.734Y25.62
X69.643Y64.928
X69.682Y18.05
X70.382Y55.285
X78.25Y25.087
X83.211Y25.17
T3
X14.0Y71.0
X19.0Y69.2
T4
X3.5Y27.0
X3.5Y24.46
X3.5Y21.92
X9.0Y61.0
X14.08Y60.99
X17.5Y27.0
X17.5Y24.46
X17.5Y21.92
X31.5Y27.0
X31.5Y24.46
X31.5Y21.92
X45.5Y27.0
X45.5Y24.46
X45.5Y21.92
X59.5Y27.0
X59.5Y24.46
X59.5Y21.92
X73.5Y27.0
X73.5Y24.46
X73.5Y21.92
X84.0Y85.0
X84.0Y82.46
X84.0Y79.92
X84.0Y77.38
X84.0Y74.84
X84.0Y72.3
X84.0Y69.76
X84.0Y67.22
X84.0Y64.68
X84.0Y62.14
X84.0Y59.6
X84.0Y57.06
X84.0Y54.52
X84.0Y51.98
X84.0Y49.44
X84.0Y46.9
X84.0Y44.36
X84.0Y41.82
X84.0Y39.28
X84.0Y36.74
X84.0Y34.2
X84.0Y31.66
X106.86Y85.0
X106.86Y82.46
X106.86Y79.92
X106.86Y77.38
X106.86Y74.84
X106.86Y72.3
X106.86Y69.76
X106.86Y67.22
X106.86Y64.68
X106.86Y62.14
X106.86Y59.6
X106.86Y57.06
X106.86Y54.52
X106.86Y51.98
X106.86Y49.44
X106.86Y46.9
X106.86Y44.36
X106.86Y41.82
X106.86Y39.28
X106.86Y36.74
X106.86Y34.2
X106.86Y31.66
X114.0Y24.0
X114.0Y21.46
X114.0Y18.92
X114.0Y16.38
T5
X30.5Y80.35
X30.5Y67.65
X40.5Y80.35
X40.5Y67.65
T6
X6.0Y79.08
X6.0Y74.0
X6.0Y37.08
X6.0Y32.0
T2
X3.0Y10.0G85X3.0Y9.0
G05
X7.5Y4.5G85X8.5Y4.5
G05
X13.0Y9.0G85X13.0Y10.0
G05
X17.0Y10.0G85X17.0Y9.0
G05
X21.5Y4.5G85X22.5Y4.5
G05
X27.0Y9.0G85X27.0Y10.0
G05
X31.0Y10.0G85X31.0Y9.0
G05
X35.5Y4.5G85X36.5Y4.5
G05
X41.0Y9.0G85X41.0Y10.0
G05
X45.0Y10.0G85X45.0Y9.0
G05
X49.5Y4.5G85X50.5Y4.5
G05
X55.0Y9.0G85X55.0Y10.0
G05
X59.0Y10.0G85X59.0Y9.0
G05
X63.5Y4.5G85X64.5Y4.5
G05
X69.0Y9.0G85X69.0Y10.0
G05
X73.0Y10.0G85X73.0Y9.0
G05
X77.5Y4.5G85X78.5Y4.5
G05
X83.0Y9.0G85X83.0Y10.0
G05
T3
X3.0Y50.32G85X2.4Y50.32
G05
X3.0Y41.68G85X2.4Y41.68
G05
X6.8Y50.32G85X6.2Y50.32
G05
X6.8Y41.68G85X6.2Y41.68
G05
M30
